<svg width="266" height="81" viewBox="0 0 266 81" fill="none" xmlns="http://www.w3.org/2000/svg">
<path d="M166.634 12.8439L166.573 12.9049C164.304 15.1753 161.474 16.8066 158.368 17.6329C159.204 14.507 159.197 11.2164 158.346 8.09436C161.484 8.91284 164.346 10.5526 166.634 12.8439Z" fill="#8B79FB"/>
<path d="M158.346 8.09425C155.264 7.29303 152.027 7.30045 148.948 8.11581C149.771 5.05039 151.384 2.25267 153.626 0C155.882 2.24025 157.509 5.03112 158.346 8.09425Z" fill="#FF2865"/>
<path d="M148.973 17.6542C145.866 16.8475 143.028 15.2362 140.747 12.9838C140.747 12.9442 140.747 12.9011 140.747 12.8616C143.017 10.5932 145.847 8.96235 148.952 8.13367C148.121 11.2541 148.128 14.5376 148.973 17.6542Z" fill="#FFC200"/>
<path d="M158.368 17.6327C155.291 18.4512 152.054 18.4586 148.973 17.6543C148.124 14.5323 148.115 11.2421 148.948 8.11576C152.026 7.30041 155.264 7.29298 158.346 8.09421C159.197 11.2162 159.204 14.5069 158.368 17.6327Z" fill="#08083A"/>
<path d="M158.368 17.6327C157.545 20.6994 155.93 23.4976 153.684 25.7485C151.429 23.508 149.802 20.7171 148.967 17.6542C152.05 18.4599 155.289 18.4524 158.368 17.6327Z" fill="#2E9B00"/>
<path d="M22.9905 35.8045H13.4051V55.2767C13.4051 60.8094 16.5762 60.3783 22.9905 60.0909V65.6954C12.0358 67.1325 7.13499 64.1865 7.13499 55.2767V35.8045H0V29.7688H7.13499V21.5776L13.4051 19.7094V29.7688H22.9905V35.8045Z" fill="#08083A"/>
<path d="M33.0085 50.6063C34.2337 57.0012 39.2066 60.7375 46.0533 60.7375C50.81 60.7375 54.2694 59.0131 56.4315 55.4923L61.7647 58.5101C58.2332 63.8991 52.9721 66.6295 45.9092 66.6295C40.2156 66.6295 35.531 64.8332 31.9275 61.3124C28.396 57.7197 26.5942 53.193 26.5942 47.7321C26.5942 42.3432 28.3239 37.8164 31.8554 34.2238C35.3869 30.6311 39.9273 28.8348 45.4767 28.8348C50.7379 28.8348 55.0621 30.703 58.3774 34.4393C61.7647 38.1038 63.4223 42.5587 63.4223 47.804C63.422 48.7422 63.3497 49.679 63.2061 50.6063H33.0085ZM33.0085 45.1454H57.0801C55.999 38.3194 51.2424 34.7267 45.4767 34.7267C38.7742 34.7267 34.0896 38.8224 33.0085 45.1454Z" fill="#08083A"/>
<path d="M73.9444 61.2405C70.3408 57.576 68.5391 53.1211 68.5391 47.7321C68.5391 42.3432 70.3408 37.8883 73.9444 34.2956C77.5479 30.6311 82.0883 28.8348 87.4936 28.8348C94.6286 28.8348 100.61 32.4993 103.421 38.2475L98.1601 41.2654C96.3583 37.4571 92.3224 34.9423 87.4936 34.9423C83.8901 34.9423 80.8631 36.1638 78.4127 38.6068C76.0344 41.0498 74.8092 44.0676 74.8092 47.7321C74.7729 49.4047 75.0731 51.0675 75.692 52.6225C76.3109 54.1774 77.236 55.593 78.4127 56.7856C80.8631 59.2286 83.8901 60.4501 87.4936 60.4501C92.3224 60.4501 96.3583 58.0071 98.3763 54.1989L103.71 57.2886C100.61 62.965 94.4845 66.6295 87.4936 66.6295C82.0883 66.6295 77.5479 64.8332 73.9444 61.2405Z" fill="#08083A"/>
<path d="M141.835 43.6365V65.6954H135.565V43.9957C135.565 38.1756 132.178 34.7985 126.628 34.7985C120.358 34.7985 116.178 38.6067 116.178 46.6543V65.6954H109.908V15.3982H116.178V34.9422C118.7 30.8466 122.592 28.8347 127.853 28.8347C136.286 28.8347 141.835 34.5111 141.835 43.6365Z" fill="#08083A"/>
<path d="M150.556 65.6953V29.7688H156.826V65.6953H150.556Z" fill="#08083A"/>
<path d="M196.317 29.7689H202.519V64.1865C202.519 69.5036 200.717 73.5993 197.113 76.5416C193.51 79.484 189.185 81.0001 184.141 81.0001C176.065 81.0001 170.011 77.9068 167.06 72.234L172.534 69.1444C174.483 73.1681 178.447 75.18 184.281 75.18C191.776 75.18 196.317 71.0125 196.317 64.1865V59.0849C193.146 63.8991 188.605 66.2702 182.768 66.2702C177.654 66.2702 173.254 64.4739 169.726 60.8094C167.994 59.06 166.629 56.9829 165.713 54.7C164.797 52.4172 164.348 49.9748 164.393 47.5166C164.393 42.2713 166.195 37.8883 169.726 34.2956C173.254 30.6311 177.654 28.8348 182.768 28.8348C188.677 28.8348 193.218 31.2059 196.317 35.9482V29.7689ZM192.641 38.4631C190.191 36.0201 187.164 34.7986 183.488 34.7986C179.813 34.7986 176.786 36.0201 174.335 38.4631C171.885 40.9061 170.663 43.9239 170.663 47.5166C170.663 51.1811 171.889 54.1989 174.335 56.6419C176.782 59.0849 179.816 60.3064 183.488 60.3064C187.16 60.3064 190.191 59.0849 192.641 56.6419C195.092 54.1989 196.317 51.1811 196.317 47.5166C196.317 43.9239 195.092 40.9061 192.641 38.4631Z" fill="#08083A"/>
<path d="M241.865 29.7689H248.136V65.6954H241.865V59.516C238.766 64.2584 234.226 66.6295 228.244 66.6295C225.83 66.672 223.434 66.2078 221.211 65.267C218.989 64.3262 216.99 62.9299 215.343 61.1687C211.812 57.5042 210.01 52.9774 210.01 47.7321C210.01 42.4869 211.812 38.032 215.343 34.3675C218.875 30.703 223.199 28.8348 228.244 28.8348C234.226 28.8348 238.766 31.2059 241.865 35.9482V29.7689ZM238.193 56.9293C239.396 55.7222 240.341 54.2853 240.973 52.7048C241.605 51.1244 241.909 49.433 241.869 47.7321C241.869 44.0676 240.644 41.0498 238.193 38.6068C235.743 36.0919 232.716 34.8704 229.041 34.8704C225.437 34.8704 222.41 36.0919 219.96 38.6068C217.509 41.0498 216.288 44.0676 216.288 47.7321C216.288 51.3966 217.509 54.4145 219.96 56.9293C222.41 59.3723 225.437 60.5938 229.041 60.5938C232.713 60.5938 235.739 59.3723 238.193 56.9293Z" fill="#08083A"/>
<path d="M256.571 19.0627C256.571 18.5107 256.68 17.9641 256.892 17.4541C257.104 16.9442 257.415 16.4808 257.806 16.0905C258.198 15.7001 258.662 15.3905 259.174 15.1793C259.686 14.968 260.234 14.8593 260.787 14.8593C261.341 14.8593 261.889 14.968 262.401 15.1793C262.912 15.3905 263.377 15.7001 263.769 16.0905C264.16 16.4808 264.471 16.9442 264.683 17.4541C264.895 17.9641 265.004 18.5107 265.004 19.0627C265.004 20.1775 264.559 21.2467 263.769 22.035C262.978 22.8233 261.906 23.2661 260.787 23.2661C259.669 23.2661 258.597 22.8233 257.806 22.035C257.015 21.2467 256.571 20.1775 256.571 19.0627ZM257.652 65.6954V29.7688H263.923V65.6954H257.652Z" fill="#08083A"/>
</svg>
